<svg viewBox="0 0 310.79 16.35" xmlns="http://www.w3.org/2000/svg"><path d="m0 .49a.22.22 0 0 1 .23-.23h5.31c3 0 4.62 1.6 4.62 4.1a3.4 3.4 0 0 1 -2.45 3.56v.08a3.66 3.66 0 0 1 2.7 3.77c0 2.73-1.74 4.36-4.87 4.36h-5.31a.22.22 0 0 1 -.23-.27zm5.52 6.92c2.14 0 3.31-1.21 3.31-2.94s-1.17-3-3.31-3h-4a.12.12 0 0 0 -.14.14v5.66a.12.12 0 0 0 .14.14zm-4 7.43h4.12c2.26 0 3.44-1.21 3.44-3.08s-1.18-3.09-3.44-3.09h-4.17c-.1 0-.14 0-.14.13v5.9a.12.12 0 0 0 .14.14z"/><path d="m26.74.49a.22.22 0 0 1 .26-.23h9.5a.22.22 0 0 1 .23.23v1.51a.22.22 0 0 1 -.23.23h-7.5a.13.13 0 0 0 -.14.14v4.63a.13.13 0 0 0 .14.14h6.4a.22.22 0 0 1 .24.23v1.46a.22.22 0 0 1 -.24.23h-6.4a.13.13 0 0 0 -.14.14v4.8a.12.12 0 0 0 .14.14h7.5a.22.22 0 0 1 .23.23v1.47a.22.22 0 0 1 -.23.24h-9.5a.22.22 0 0 1 -.23-.24z"/><path d="m56 16.1a.22.22 0 0 1 -.23-.24v-6.24l-4.56-9.13c0-.12 0-.23.19-.23h2.35a.35.35 0 0 1 .33.23l3.1 6.15h.07l3.12-6.15a.32.32 0 0 1 .32-.23h2.31c.19 0 .24.11.19.23l-4.64 9.13v6.24a.22.22 0 0 1 -.23.24z"/><path d="m77.23 12.53a12.69 12.69 0 0 1 -.42-4.35 12.72 12.72 0 0 1 .42-4.36 6 6 0 0 1 11.2 0 12.72 12.72 0 0 1 .42 4.36 12.69 12.69 0 0 1 -.42 4.35 6 6 0 0 1 -11.2 0zm8.54-.72a12.47 12.47 0 0 0 .28-3.63 12.41 12.41 0 0 0 -.28-3.64 3.13 3.13 0 0 0 -5.89 0 12.8 12.8 0 0 0 -.28 3.64 12.87 12.87 0 0 0 .28 3.63 3.13 3.13 0 0 0 5.89 0z"/><path d="m105.15.49a.22.22 0 0 1 .23-.23h2.8a.43.43 0 0 1 .39.23l5.59 10h.12v-10a.22.22 0 0 1 .23-.23h2.64a.22.22 0 0 1 .23.23v15.37a.22.22 0 0 1 -.23.24h-2.78a.4.4 0 0 1 -.39-.24l-5.62-9.94h-.11v9.94a.23.23 0 0 1 -.24.24h-2.63a.22.22 0 0 1 -.23-.24z"/><path d="m135.77.49a.22.22 0 0 1 .23-.23h5.89c2.77 0 4.71 1.18 5.47 3.56a13.4 13.4 0 0 1 .42 4.36 13.32 13.32 0 0 1 -.42 4.35c-.76 2.38-2.7 3.57-5.47 3.57h-5.89a.23.23 0 0 1 -.24-.24zm3.57 12.51h1.79c1.59 0 2.54-.46 2.94-1.74a9.9 9.9 0 0 0 .25-3.12 10 10 0 0 0 -.25-3.13c-.4-1.28-1.35-1.74-2.94-1.74h-1.79a.12.12 0 0 0 -.14.14v9.49a.12.12 0 0 0 .14.1z"/><path d="m176.06.49a.22.22 0 0 1 .24-.23h3a.22.22 0 0 1 .23.23v12.41c0 .1 0 .14.14.14h7a.22.22 0 0 1 .23.24v2.58a.22.22 0 0 1 -.23.24h-10.37a.23.23 0 0 1 -.24-.24z"/><path d="m202.38.49a.22.22 0 0 1 .23-.23h3a.22.22 0 0 1 .23.23v15.37a.22.22 0 0 1 -.23.24h-3a.22.22 0 0 1 -.23-.24z"/><path d="m223.74.49a.22.22 0 0 1 .26-.23h2a.38.38 0 0 1 .4.23l4.35 9.76h.1l4.32-9.76a.38.38 0 0 1 .4-.23h2.05a.22.22 0 0 1 .23.23v15.37a.22.22 0 0 1 -.23.24h-2a.22.22 0 0 1 -.23-.24v-9.69h-.09l-3.36 7.46a.44.44 0 0 1 -.44.3h-1.35a.44.44 0 0 1 -.44-.3l-3.36-7.46h-.09v9.69a.23.23 0 0 1 -.23.24h-2a.22.22 0 0 1 -.23-.24z"/><path d="m255.78.49a.22.22 0 0 1 .22-.23h2.29a.22.22 0 0 1 .23.23v15.37a.22.22 0 0 1 -.23.24h-2.29a.22.22 0 0 1 -.23-.24z"/><path d="m279.7 16.1a.22.22 0 0 1 -.23-.24v-13.53a.13.13 0 0 0 -.14-.14h-4.33a.22.22 0 0 1 -.23-.23v-1.47a.22.22 0 0 1 .23-.23h11a.22.22 0 0 1 .23.23v1.51a.22.22 0 0 1 -.23.23h-4.33a.13.13 0 0 0 -.14.14v13.49a.22.22 0 0 1 -.23.24z"/><path d="m300 14.49a.24.24 0 0 1 0-.33l.56-.7a.22.22 0 0 1 .33 0 7.6 7.6 0 0 0 4.54 1.63c2.54 0 4.1-1.28 4.1-3.24 0-1.56-.89-2.7-3.8-3.07l-.72-.09c-3.1-.4-4.57-1.89-4.57-4.2 0-2.75 2-4.45 5-4.45a8 8 0 0 1 4.52 1.33.21.21 0 0 1 0 .33l-.46.72a.23.23 0 0 1 -.33.05 7.18 7.18 0 0 0 -3.84-1.17c-2.26 0-3.59 1.26-3.59 3.1 0 1.61 1 2.65 3.73 3l.72.1c3.21.42 4.64 1.91 4.64 4.26 0 2.68-1.91 4.59-5.59 4.59a8.63 8.63 0 0 1 -5.24-1.86z"/></svg>