<svg xmlns="http://www.w3.org/2000/svg" viewBox="0 0 310.79 16.35"><title>beyond_limits_logo</title><g><g><path d="M0,.49A.22.22,0,0,1,.23.26H5.54c3,0,4.62,1.6,4.62,4.1A3.4,3.4,0,0,1,7.71,7.92V8a3.66,3.66,0,0,1,2.7,3.77c0,2.73-1.74,4.36-4.87,4.36H.23A.22.22,0,0,1,0,15.86ZM5.52,7.41c2.14,0,3.31-1.21,3.31-2.94s-1.17-3-3.31-3h-4a.12.12,0,0,0-.14.14V7.27a.12.12,0,0,0,.14.14Zm-4,7.43H5.64c2.26,0,3.44-1.21,3.44-3.08S7.9,8.67,5.64,8.67H1.47c-.1,0-.14,0-.14.13v5.9A.12.12,0,0,0,1.47,14.84Z" style="fill:#000"></path><path d="M26.74.49A.22.22,0,0,1,27,.26H36.5a.22.22,0,0,1,.23.23V2a.22.22,0,0,1-.23.23H29a.13.13,0,0,0-.14.14V7a.13.13,0,0,0,.14.14h6.4a.22.22,0,0,1,.24.23V8.83a.22.22,0,0,1-.24.23H29a.13.13,0,0,0-.14.14V14a.12.12,0,0,0,.14.14H36.5a.22.22,0,0,1,.23.23v1.47a.22.22,0,0,1-.23.24H27a.22.22,0,0,1-.23-.24Z" style="fill:#000"></path><path d="M56,16.1a.22.22,0,0,1-.23-.24V9.62L51.21.49c0-.12,0-.23.19-.23h2.35a.35.35,0,0,1,.33.23l3.1,6.15h.07L60.37.49a.32.32,0,0,1,.32-.23H63c.19,0,.24.11.19.23L58.55,9.62v6.24a.22.22,0,0,1-.23.24Z" style="fill:#000"></path><path d="M77.23,12.53a12.69,12.69,0,0,1-.42-4.35,12.72,12.72,0,0,1,.42-4.36,6,6,0,0,1,11.2,0,12.72,12.72,0,0,1,.42,4.36,12.69,12.69,0,0,1-.42,4.35,6,6,0,0,1-11.2,0Zm8.54-.72a12.47,12.47,0,0,0,.28-3.63,12.41,12.41,0,0,0-.28-3.64,3.13,3.13,0,0,0-5.89,0,12.8,12.8,0,0,0-.28,3.64,12.87,12.87,0,0,0,.28,3.63,3.13,3.13,0,0,0,5.89,0Z" style="fill:#000"></path><path d="M105.15.49a.22.22,0,0,1,.23-.23h2.8a.43.43,0,0,1,.39.23l5.59,10h.12V.49a.22.22,0,0,1,.23-.23h2.64a.22.22,0,0,1,.23.23V15.86a.22.22,0,0,1-.23.24h-2.78a.4.4,0,0,1-.39-.24l-5.62-9.94h-.11v9.94a.23.23,0,0,1-.24.24h-2.63a.22.22,0,0,1-.23-.24Z" style="fill:#000"></path><path d="M135.77.49A.22.22,0,0,1,136,.26h5.89c2.77,0,4.71,1.18,5.47,3.56a13.4,13.4,0,0,1,.42,4.36,13.32,13.32,0,0,1-.42,4.35c-.76,2.38-2.7,3.57-5.47,3.57H136a.23.23,0,0,1-.24-.24ZM139.34,13h1.79c1.59,0,2.54-.46,2.94-1.74a9.9,9.9,0,0,0,.25-3.12,10,10,0,0,0-.25-3.13c-.4-1.28-1.35-1.74-2.94-1.74h-1.79a.12.12,0,0,0-.14.14V12.9A.12.12,0,0,0,139.34,13Z" style="fill:#000"></path><path d="M176.06.49a.22.22,0,0,1,.24-.23h3a.22.22,0,0,1,.23.23V12.9c0,.1,0,.14.14.14h7a.22.22,0,0,1,.23.24v2.58a.22.22,0,0,1-.23.24H176.3a.23.23,0,0,1-.24-.24Z" style="fill:#000"></path><path d="M202.38.49a.22.22,0,0,1,.23-.23h3a.22.22,0,0,1,.23.23V15.86a.22.22,0,0,1-.23.24h-3a.22.22,0,0,1-.23-.24Z" style="fill:#000"></path><path d="M223.74.49A.22.22,0,0,1,224,.26H226a.38.38,0,0,1,.4.23l4.35,9.76h.1L235.17.49a.38.38,0,0,1,.4-.23h2.05a.22.22,0,0,1,.23.23V15.86a.22.22,0,0,1-.23.24h-2a.22.22,0,0,1-.23-.24V6.17h-.09l-3.36,7.46a.44.44,0,0,1-.44.3h-1.35a.44.44,0,0,1-.44-.3l-3.36-7.46h-.09v9.69a.23.23,0,0,1-.23.24h-2a.22.22,0,0,1-.23-.24Z" style="fill:#000"></path><path d="M255.78.49A.22.22,0,0,1,256,.26h2.29a.22.22,0,0,1,.23.23V15.86a.22.22,0,0,1-.23.24H256a.22.22,0,0,1-.23-.24Z" style="fill:#000"></path><path d="M279.7,16.1a.22.22,0,0,1-.23-.24V2.33a.13.13,0,0,0-.14-.14H275a.22.22,0,0,1-.23-.23V.49A.22.22,0,0,1,275,.26h11a.22.22,0,0,1,.23.23V2a.22.22,0,0,1-.23.23h-4.33a.13.13,0,0,0-.14.14V15.86a.22.22,0,0,1-.23.24Z" style="fill:#000"></path><path d="M300,14.49a.24.24,0,0,1,0-.33l.56-.7a.22.22,0,0,1,.33,0,7.6,7.6,0,0,0,4.54,1.63c2.54,0,4.1-1.28,4.1-3.24,0-1.56-.89-2.7-3.8-3.07l-.72-.09c-3.1-.4-4.57-1.89-4.57-4.2,0-2.75,2-4.45,5-4.45a8,8,0,0,1,4.52,1.33.21.21,0,0,1,0,.33l-.46.72a.23.23,0,0,1-.33.05,7.18,7.18,0,0,0-3.84-1.17c-2.26,0-3.59,1.26-3.59,3.1,0,1.61,1,2.65,3.73,3l.72.1c3.21.42,4.64,1.91,4.64,4.26,0,2.68-1.91,4.59-5.59,4.59A8.63,8.63,0,0,1,300,14.49Z" style="fill:#000"></path></g></g></svg>